<?xml version="1.0" encoding="utf-8"?>
<svg id="logo" xmlns="http://www.w3.org/2000/svg" xmlns:xlink="http://www.w3.org/1999/xlink" viewBox="0 0 464.5 417.8">
   <path d="M613.9,364.4c0.1-1.4.1-2.8,0.2-4.2s0-2.4,0-3.5,0-1.8,0-2.7-0.1-2.8-.1-4.2,0-1.4-.1-2.1-0.2-3-.3-4.6-0.1-1.2-.1-1.8-0.3-3.1-.5-4.7-0.1-1.1-.2-1.7-0.4-3.3-.6-4.9l-0.2-1.5c-0.3-1.7-.5-3.4-0.8-5.1l-0.2-1.2c-0.3-1.8-.7-3.6-1.1-5.4l-0.2-1c-0.4-1.9-.8-3.7-1.3-5.6l-0.2-.8c-0.5-1.9-1-3.9-1.5-5.8v-0.5c-0.5-1.9-1.1-3.9-1.7-5.8l-0.2-.5-2-6v-0.3l-2.2-6v-0.3l-2.4-6.1v-0.2l-2.6-6.1v-0.2l-2.8-6.1h0l-3.1-6.1h0l-3.2-6.1h0l-3.4-6h0l-3.6-6h0l-3.7-5.9v-0.2l-3.9-5.8h-0.1l-4.1-5.7-0.2-.2-4.2-5.6-0.2-.2-4.3-5.4-0.3-.3-4.4-5.2-0.4-.5-4.5-5.1-0.4-.5-4.5-4.9-0.6-.7-4.5-4.6-0.8-.8-4.5-4.4-1-.9-4.4-4.2-1.1-1-0.2-.2-0.2-.2L513,137.9l-67.2-35.6s-35.3,8.8-37.6,8.1h0c-5.2-1.6-10.5-3.1-15.7-4.4a262,262,0,0,0-64.2-8.3h0c-40.4,0-77.5,10.4-107.2,30.2-3.3,2.2-9.4,6.8-9.4,6.8L173.4,141s-25.6,37.3-23.7,39.3l4.2,63.3a17.6,17.6,0,0,0-.5,3.3c0,0.7-.1,1.3-0.1,2s-0.1,2.8-.2,4.2,0,2.1,0,3.2,0,2,0,3.1,0.1,2.7.1,4,0,1.5.1,2.3,0.2,2.9.3,4.3,0.1,1.3.1,2,0.3,3.1.4,4.6l0.2,1.8c0.2,1.6.4,3.1,0.6,4.7l0.2,1.7c0.2,1.6.5,3.3,0.8,4.9l0.2,1.5c0.3,1.7.6,3.3,1,5l0.3,1.3c0.4,1.8.8,3.6,1.2,5.4l0.2,1c0.5,1.8,1,3.7,1.5,5.5l0.2,0.8,1.6,5.5,0.2,0.8,1.9,5.6,0.2,0.7,2,5.6,0.2,0.7,2.2,5.6,0.3,0.7,2.4,5.7,0.2,0.6,2.7,5.7,0.2,0.5,2.8,5.7,0.3,0.5,3,5.6,0.3,0.5,3.2,5.6,0.3,0.5,3.4,5.6,0.3,0.5,3.5,5.4,0.4,0.6,3.7,5.4,0.4,0.5,3.8,5.3,0.4,0.6,3.9,5.2,0.5,0.6,4,5,0.6,0.7,4.1,4.9,0.7,0.8,4.2,4.7,0.8,0.9,4.2,4.5,0.9,1,4.2,4.3,1.1,1.1,4.2,4.1,1.3,1.2,4.1,3.9,1.4,1.3,0.3,0.3H241l13.2,40.5L321.4,511s35.3-8.8,37.6-8.1h0a290.7,290.7,0,0,0,29.3,7.5l0.9,0.2,1.8,0.3a255.3,255.3,0,0,0,47.8,4.7h0c36.1,0,69.5-8.3,97.4-24.2,3.4-1.9,6.6-3.9,9.8-6,38.7-25.7,62.5-65.7,67.1-112.8q0.3-3.1.5-6.2c0-.7.1-1.3,0.1-2M439,503a242.4,242.4,0,0,1-43.4-4.1,274,274,0,0,1-32.8-8.1A295.9,295.9,0,0,1,324.7,476l-0.7-.3-6.7-3.3-1.3-.7-6-3.1-1.8-1-5.4-3-2.1-1.2-5-3-2.4-1.5-4.5-2.9-2.7-1.8-4.1-2.8-3-2.1-3.7-2.6-3.3-2.4-3.3-2.5-3.5-2.7-3-2.4-3.7-3.1-2.6-2.2L252,428l-2.5-2.2h-0.1c-55.1-50-85.8-114.5-83.7-174.2,0.1-3.2.3-6.4,0.6-9.6a140.8,140.8,0,0,1,23.1-65.6,138.2,138.2,0,0,1,38.4-37.9c27.7-18.4,62.4-28.1,100.3-28.1a246.3,246.3,0,0,1,53,6c7.7,1.7,15.5,3.7,23.2,6.1q7.8,2.4,15.4,5.3H420l7.5,2.9,0.7,0.3,6.8,2.9,1.2,0.6,6.2,2.8,1.6,0.8,5.8,2.8,2,1,5.3,2.8,2.3,1.3,4.9,2.7,2.5,1.5,4.5,2.7,2.8,1.7,4.2,2.7,3,2,3.9,2.6,3.3,2.3,3.5,2.5,3.5,2.6,3.1,2.3,3.7,2.9,2.8,2.2,4,3.3,2.4,2,4.2,3.7,2.2,1.9,0.2,0.2c54.4,49.4,85.1,112.9,83.8,172q-0.1,5.9-.7,11.8c-4.2,43.2-26,80-61.6,103.6-2.8,1.8-5.7,3.6-8.6,5.3C504.6,495.2,473.1,503,439,503" transform="translate(-149.6 -97.7)"/>

    <path d="M149.8,248.9c-0.1,1.4-.1,2.8-0.2,4.2s0,2.4,0,3.5,0,1.8,0,2.7,0.1,2.8.1,4.2,0,1.4.1,2.1,0.2,3,.3,4.6,0.1,1.2.1,1.8,0.3,3.1.5,4.7,0.1,1.1.2,1.7,0.4,3.3.6,4.9l0.2,1.5c0.3,1.7.5,3.4,0.8,5.1l0.2,1.2c0.3,1.8.7,3.6,1.1,5.4l0.2,1c0.4,1.9.8,3.7,1.3,5.6l0.2,0.8q0.7,2.9,1.5,5.8v0.5c0.5,1.9,1.1,3.9,1.7,5.8l0.2,0.5q0.9,3,2,6v0.3l2.2,6v0.3l2.4,6.1v0.2l2.6,6.1h0.1l2.8,6.1h0l3.1,6.1h0l3.2,6.1h0.1l3.4,6h0l3.6,6h0l3.7,5.9v0.2l3.9,5.8h0.1l4.1,5.7,0.2,0.2,4.2,5.6,0.2,0.2,4.3,5.4,0.3,0.3,4.4,5.2,0.4,0.5,4.5,5.1,0.4,0.5,4.5,4.9,0.6,0.7,4.5,4.6,0.8,0.8,4.5,4.4,1,0.9,4.4,4.2,1.1,1,0.2,0.2,0.2,0.2,13.2,40.5L317.9,511s35.3-8.8,37.6-8.1h0c5.2,1.6,10.5,3.1,15.7,4.4a262.2,262.2,0,0,0,64.2,8.3h0c40.4,0,77.5-10.4,107.2-30.2,3.3-2.2,9.4-6.8,9.4-6.8l38.2-6.3S615.9,435,614,433l-4.2-63.3a17.5,17.5,0,0,0,.5-3.3c0-.7.1-1.3,0.1-2s0.1-2.8.2-4.2,0-2.1,0-3.2,0-2,0-3.1-0.1-2.7-.1-4,0-1.5-.1-2.3-0.2-2.9-.3-4.3-0.1-1.3-.1-2-0.3-3-.4-4.6l-0.2-1.8c-0.2-1.6-.4-3.1-0.6-4.7l-0.2-1.6c-0.2-1.6-.5-3.3-0.8-4.9l-0.2-1.5c-0.3-1.7-.6-3.3-1-5l-0.3-1.3c-0.4-1.8-.8-3.6-1.2-5.4l-0.2-1c-0.5-1.8-1-3.7-1.5-5.5l-0.2-.8c-0.5-1.8-1.1-3.7-1.6-5.5l-0.2-.8-1.9-5.6-0.2-.7-2-5.6-0.2-.7-2.2-5.6-0.3-.7-2.4-5.7-0.2-.6-2.7-5.7-0.2-.5-2.8-5.7-0.3-.5-3-5.6-0.3-.5-3.2-5.6-0.3-.5-3.4-5.6-0.3-.5-3.5-5.4-0.4-.6-3.7-5.4-0.4-.5-3.8-5.3-0.4-.6-3.9-5.2-0.5-.6-4-5-0.6-.7-4.1-4.9-0.7-.8-4.2-4.7-0.8-.9-4.2-4.5-0.9-1-4.2-4.3-1.1-1.1-4.2-4.1-1.3-1.2-4.1-3.9-1.4-1.3-0.3-.3h-0.2l-13.2-40.5-67.2-35.6s-35.3,8.8-37.6,8.1h0a291.4,291.4,0,0,0-29.3-7.5l-0.9-.2-1.8-.3a255.3,255.3,0,0,0-47.8-4.7h0c-36.1,0-69.5,8.3-97.4,24.2-3.4,1.9-6.6,3.9-9.8,6-38.7,25.7-62.5,65.7-67.1,112.8q-0.3,3.1-.5,6.2c0,0.7-.1,1.3-0.1,2M324.7,110.2a242.2,242.2,0,0,1,43.4,4.1,273.7,273.7,0,0,1,32.8,8.1A295.5,295.5,0,0,1,439,137.3l0.7,0.3,6.7,3.3,1.3,0.7,6,3.1,1.8,1,5.4,3,2.1,1.2,5,3,2.4,1.5,4.5,2.9,2.7,1.8,4.1,2.8,3,2.1,3.7,2.6,3.3,2.4,3.3,2.5,3.5,2.7,3,2.4,3.7,3.1,2.6,2.2,3.9,3.4,2.5,2.2h0.1c55.1,50,85.8,114.5,83.7,174.2-0.1,3.2-.3,6.4-0.6,9.6A140.8,140.8,0,0,1,574.3,437a138.3,138.3,0,0,1-38.4,38C508.1,493.3,473.4,503,435.5,503a246.1,246.1,0,0,1-53-6c-7.7-1.7-15.5-3.7-23.2-6.1q-7.8-2.4-15.4-5.3h-0.1l-7.5-2.9-0.7-.3-6.8-2.9-1.2-.6-6.2-2.8-1.6-.8-5.8-2.8-2-1-5.3-2.8-2.3-1.3-4.9-2.7-2.5-1.5-4.5-2.7-2.8-1.7-4.2-2.7-3-2-3.9-2.6-3.3-2.3-3.5-2.5-3.5-2.6-3.1-2.3-3.7-2.9-2.8-2.2-4-3.3-2.4-2-4.2-3.7-2.2-1.9-0.2-.2c-54.4-49.4-85.1-112.9-83.8-172q0.1-5.9.7-11.8c4.2-43.2,26-80,61.6-103.5,2.8-1.9,5.7-3.6,8.6-5.3,26.1-14.9,57.6-22.8,91.7-22.8" transform="translate(-149.6 -97.7)"/>
</svg>
