<svg id="logo" xmlns="http://www.w3.org/2000/svg" viewBox="0 0 464.5 417.8">

    <title>Visualize Somerville</title>
    <g id="LENS">
        <path stroke="none" d="M613.9,364.4c0.1-1.4.1-2.8,0.2-4.2s0-2.4,0-3.5,0-1.8,0-2.7-0.1-2.8-.1-4.2,0-1.4-.1-2.1-0.2-3-.3-4.6-0.1-1.2-.1-1.8-0.3-3.1-.5-4.7l-0.2-1.7c-0.2-1.6-.4-3.3-0.6-4.9l-0.2-1.5c-0.3-1.7-.5-3.4-0.8-5.1l-0.2-1.2c-0.3-1.8-.7-3.6-1.1-5.4l-0.2-1c-0.4-1.9-.8-3.7-1.3-5.6l-0.2-.8c-0.5-1.9-1-3.9-1.5-5.8v-0.5c-0.5-1.9-1.1-3.9-1.7-5.8l-0.2-.5-2-6v-0.3l-2.2-6v-0.3l-2.4-6.1v-0.2l-2.6-6.1v-0.2l-2.8-6.1h0l-3.1-6.1h0l-3.2-6.1h0l-3.4-6h0l-3.6-6h0l-3.7-5.9v-0.2l-3.9-5.8h-0.1l-4.1-5.7-0.2-.2-4.2-5.6-0.2-.2-4.3-5.4-0.3-.3-4.4-5.2-0.4-.5-4.5-5.1-0.4-.5-4.5-4.9-0.6-.7-4.5-4.6-0.8-.8-4.5-4.4-1-.9-4.4-4.2-1.1-1-0.2-.2-0.2-.2L513,137.9l-67.2-35.6s-35.3,8.8-37.6,8.1h0c-5.2-1.6-10.5-3.1-15.7-4.4a262,262,0,0,0-64.2-8.3h0c-40.4,0-77.5,10.4-107.2,30.2-3.3,2.2-9.4,6.8-9.4,6.8L173.4,141s-25.6,37.3-23.7,39.3l4.2,63.3a17.6,17.6,0,0,0-.5,3.3c0,0.7-.1,1.3-0.1,2s-0.1,2.8-.2,4.2,0,2.1,0,3.2,0,2,0,3.1,0.1,2.7.1,4,0,1.5.1,2.3,0.2,2.9.3,4.3,0.1,1.3.1,2,0.3,3.1.4,4.6l0.2,1.8c0.2,1.6.4,3.1,0.6,4.7l0.2,1.7c0.2,1.6.5,3.3,0.8,4.9l0.2,1.5c0.3,1.7.6,3.3,1,5l0.3,1.3c0.4,1.8.8,3.6,1.2,5.4l0.2,1c0.5,1.8,1,3.7,1.5,5.5l0.2,0.8,1.6,5.5,0.2,0.8,1.9,5.6,0.2,0.7,2,5.6,0.2,0.7,2.2,5.6,0.3,0.7,2.4,5.7,0.2,0.6,2.7,5.7,0.2,0.5,2.8,5.7,0.3,0.5,3,5.6,0.3,0.5,3.2,5.6,0.3,0.5,3.4,5.6,0.3,0.5,3.5,5.4,0.4,0.6,3.7,5.4,0.4,0.5,3.8,5.3,0.4,0.6,3.9,5.2,0.5,0.6,4,5,0.6,0.7,4.1,4.9,0.7,0.8,4.2,4.7,0.8,0.9,4.2,4.5,0.9,1,4.2,4.3,1.1,1.1,4.2,4.1,1.3,1.2,4.1,3.9,1.4,1.3,0.3,0.3H241l13.2,40.5L321.4,511s35.3-8.8,37.6-8.1h0a290.6,290.6,0,0,0,29.3,7.5l0.9,0.2,1.8,0.3a255.4,255.4,0,0,0,47.8,4.7h0c36.1,0,69.5-8.3,97.4-24.2,3.4-1.9,6.6-3.9,9.8-6,38.7-25.7,62.5-65.7,67.1-112.8q0.3-3.1.5-6.2C613.9,365.7,613.9,365.1,613.9,364.4ZM439,503a242.4,242.4,0,0,1-43.4-4.1,274.2,274.2,0,0,1-32.8-8.1A295.8,295.8,0,0,1,324.7,476l-0.7-.3-6.7-3.3-1.3-.7-6-3.1-1.8-1-5.4-3-2.1-1.2-5-3-2.4-1.5-4.5-2.9-2.7-1.8-4.1-2.8-3-2.1-3.7-2.6-3.3-2.4-3.3-2.5-3.5-2.7-3-2.4-3.7-3.1-2.6-2.2L252,428l-2.5-2.2h-0.1c-55.1-50-85.8-114.5-83.7-174.2,0.1-3.2.3-6.4,0.6-9.6a140.8,140.8,0,0,1,23.1-65.6,138.2,138.2,0,0,1,38.4-37.9c27.7-18.4,62.4-28.1,100.3-28.1a246.2,246.2,0,0,1,53,6c7.7,1.7,15.5,3.7,23.2,6.1q7.8,2.4,15.4,5.3H420l7.5,2.9,0.7,0.3,6.8,2.9,1.2,0.6,6.2,2.8,1.6,0.8,5.8,2.8,2,1,5.3,2.8,2.3,1.3,4.9,2.7,2.5,1.5,4.5,2.7,2.8,1.7,4.2,2.7,3,2,3.9,2.6,3.3,2.3,3.5,2.5,3.5,2.6,3.1,2.3,3.7,2.9,2.8,2.2,4,3.3,2.4,2,4.2,3.7,2.2,1.9,0.2,0.2c54.4,49.4,85.1,112.9,83.8,172q-0.1,5.9-.7,11.8c-4.2,43.2-26,80-61.6,103.6-2.8,1.9-5.7,3.6-8.6,5.3C504.6,495.2,473.1,503,439,503Z" transform="translate(-149.6 -97.7)"/>

        <path stroke="none" d="M149.8,248.9c-0.1,1.4-.1,2.8-0.2,4.2s0,2.4,0,3.5,0,1.8,0,2.7,0.1,2.8.1,4.2,0,1.4.1,2.1,0.2,3,.3,4.6,0.1,1.2.1,1.8,0.3,3.1.5,4.7,0.1,1.1.2,1.7,0.4,3.3.6,4.9l0.2,1.5c0.3,1.7.5,3.4,0.8,5.1l0.2,1.2c0.3,1.8.7,3.6,1.1,5.4l0.2,1c0.4,1.9.8,3.7,1.3,5.6l0.2,0.8q0.7,2.9,1.5,5.8v0.5c0.5,1.9,1.1,3.9,1.7,5.8l0.2,0.5q0.9,3,2,6v0.3l2.2,6v0.3l2.4,6.1v0.2l2.6,6.1h0.1l2.8,6.1h0l3.1,6.1h0l3.2,6.1h0.1l3.4,6h0l3.6,6h0l3.7,5.9v0.2l3.9,5.8h0.1l4.1,5.7,0.2,0.2,4.2,5.6,0.2,0.2,4.3,5.4,0.3,0.3,4.4,5.2,0.4,0.5,4.5,5.1,0.4,0.5,4.5,4.9,0.6,0.7,4.5,4.6,0.8,0.8,4.5,4.4,1,0.9,4.4,4.2,1.1,1,0.2,0.2,0.2,0.2,13.2,40.5L317.9,511s35.3-8.8,37.6-8.1h0c5.2,1.6,10.5,3.1,15.7,4.4a262.2,262.2,0,0,0,64.2,8.3h0c40.4,0,77.5-10.4,107.2-30.2,3.3-2.2,9.4-6.8,9.4-6.8l38.2-6.3S615.9,435,614,433l-4.2-63.3a17.5,17.5,0,0,0,.5-3.3c0-.7.1-1.3,0.1-2s0.1-2.8.2-4.2,0-2.1,0-3.2,0-2,0-3.1-0.1-2.7-.1-4,0-1.5-.1-2.3-0.2-2.9-.3-4.3-0.1-1.3-.1-2-0.3-3-.4-4.6l-0.2-1.8c-0.2-1.6-.4-3.1-0.6-4.7l-0.2-1.6c-0.2-1.6-.5-3.3-0.8-4.9l-0.2-1.5c-0.3-1.7-.6-3.3-1-5l-0.3-1.3c-0.4-1.8-.8-3.6-1.2-5.4l-0.2-1c-0.5-1.8-1-3.7-1.5-5.5l-0.2-.8c-0.5-1.8-1.1-3.7-1.6-5.5l-0.2-.8-1.9-5.6-0.2-.7-2-5.6-0.2-.7-2.2-5.6-0.3-.7-2.4-5.7-0.2-.6-2.7-5.7-0.2-.5-2.8-5.7-0.3-.5-3-5.6-0.3-.5-3.2-5.6-0.3-.5-3.4-5.6-0.3-.5-3.5-5.4-0.4-.6-3.7-5.4-0.4-.5-3.8-5.3-0.4-.6-3.9-5.2-0.5-.6-4-5-0.6-.7-4.1-4.9-0.7-.8-4.2-4.7-0.8-.9-4.2-4.5-0.9-1-4.2-4.3-1.1-1.1-4.2-4.1-1.3-1.2-4.1-3.9-1.4-1.3-0.3-.3h-0.2l-13.2-40.5-67.2-35.6s-35.3,8.8-37.6,8.1h0a291.2,291.2,0,0,0-29.3-7.5l-0.9-.2-1.8-.3a255.3,255.3,0,0,0-47.8-4.7h0c-36.1,0-69.5,8.3-97.4,24.2-3.4,1.9-6.6,3.9-9.8,6-38.7,25.7-62.5,65.7-67.1,112.8q-0.3,3.1-.5,6.2C149.9,247.5,149.8,248.2,149.8,248.9ZM324.7,110.2a242.2,242.2,0,0,1,43.4,4.1,273.7,273.7,0,0,1,32.8,8.1A295.5,295.5,0,0,1,439,137.3l0.7,0.3,6.7,3.3,1.3,0.7,6,3.1,1.8,1,5.4,3,2.1,1.2,5,3,2.4,1.5,4.5,2.9,2.7,1.8,4.1,2.8,3,2.1,3.7,2.6,3.3,2.4,3.3,2.5,3.5,2.7,3,2.4,3.7,3.1,2.6,2.2,3.9,3.4,2.5,2.2h0.1c55.1,50,85.8,114.5,83.7,174.2-0.1,3.2-.3,6.4-0.6,9.6A140.8,140.8,0,0,1,574.3,437a138.3,138.3,0,0,1-38.4,38C508.1,493.3,473.4,503,435.5,503a246.1,246.1,0,0,1-53-6c-7.7-1.7-15.5-3.7-23.2-6.1q-7.8-2.4-15.4-5.3h-0.1l-7.5-2.9-0.7-.3-6.8-2.9-1.2-.6-6.2-2.8-1.6-.8-5.8-2.8-2-1-5.3-2.8-2.3-1.3-4.9-2.7-2.5-1.5-4.5-2.7-2.8-1.7-4.2-2.7-3-2-3.9-2.6-3.3-2.3-3.5-2.5-3.5-2.6-3.1-2.3-3.7-2.9-2.8-2.2-4-3.3-2.4-2-4.2-3.7-2.2-1.9-0.2-.2c-54.4-49.4-85.1-112.9-83.8-172q0.1-5.9.7-11.8c4.2-43.2,26-80,61.6-103.5,2.8-1.9,5.7-3.6,8.6-5.3C259.1,118.1,290.6,110.2,324.7,110.2Z" transform="translate(-149.6 -97.7)"/>

        <path stroke="none" d="M595.7,294.4C571,203.2,456,134.7,338.9,141.5s-192,86.2-167.4,177.4,139.7,159.7,256.8,153S620.4,385.6,595.7,294.4ZM376.9,200.6c-97.5,0-111.1,74-122.5,31.9s36.6-76.4,107.2-76.6,137.1,33.7,148.5,75.8S481.6,200.6,376.9,200.6Z" transform="translate(-149.6 -97.7)"/>
    </g>

    <g id="Text">
        <path fill="none" stroke-width="2px" d="M242.9,371.3a33.6,33.6,0,0,1-11.3-1.9l0.7-2.9a37.8,37.8,0,0,0,10.8,1.6c6.9,0,8.7-2.1,8.7-7.2s-0.1-6.9-9-8.9-10.8-4-10.8-12c0-6.6,2.4-10,12.5-10a41.4,41.4,0,0,1,10.4,1.4l-0.4,3a48.1,48.1,0,0,0-9.8-1.2c-7.9,0-9,1.9-9,6.9,0,6.5.2,6.8,8.6,8.9,10.5,2.6,11.1,4.2,11.1,11.7S253.1,371.3,242.9,371.3Z" transform="translate(-149.6 -97.7)"/>

        <path stroke-width="2px" d="M278.4,371.3c-10.3,0-14-5.1-14-11.9V341.9c0-6.9,3.7-11.9,14-11.9s14,5.1,14,11.9v17.5C292.4,366.2,288.7,371.3,278.4,371.3Zm10.5-12V342c0-5.7-2.8-8.9-10.5-8.9s-10.5,3.1-10.5,8.9v17.2c0,5.7,2.8,8.9,10.5,8.9S288.9,365,288.9,359.3Z" transform="translate(-149.6 -97.7)"/>

        <path stroke-width="2px" d="M335.3,334.1l-11.7,31.4h-5.5l-11.7-31.4-0.8,36.5h-3.6l1.2-40.1h5.2l12.5,32.7,12.4-32.7h5.2l1.2,40.1h-3.6Z" transform="translate(-149.6 -97.7)"/>

        <path stroke-width="2px" d="M350.2,330.6h22.6v3.2h-19v14.9h17.7v3.2H353.8v15.7h19.1v3.2H350.2V330.6Z" transform="translate(-149.6 -97.7)"/>

        <path stroke-width="2px" d="M397.5,355.3H386v15.4h-3.6V330.6h14.2c8.1,0,11,3.7,11,9.3V346c0,4.4-1.8,7.6-6.5,8.8l10.7,15.9h-4Zm-0.7-21.5H386v18.3h10.7c5.1,0,7.4-1.7,7.4-6.1v-6.1C404.2,335.5,401.8,333.8,396.8,333.8Z" transform="translate(-149.6 -97.7)"/>

        <path stroke-width="2px" d="M445.2,330.6h3.5l-14.1,40.1h-4.8l-14.1-40.1H419l13.1,36.9Z" transform="translate(-149.6 -97.7)"/>

        <path stroke-width="2px" d="M459.1,370.7h-3.5V330.6h3.5v40.1Z" transform="translate(-149.6 -97.7)"/>

        <path stroke-width="2px" d="M473.8,367.5h18.1v3.2H470.3V330.6h3.6v36.9Z" transform="translate(-149.6 -97.7)"/>

        <path stroke-width="2px" d="M503.6,367.5h18.1v3.2H500V330.6h3.6v36.9Z" transform="translate(-149.6 -97.7)"/>

        <path stroke-width="2px" d="M529.8,330.6h22.6v3.2h-19v14.9H551v3.2H533.3v15.7h19.1v3.2H529.8V330.6Z" transform="translate(-149.6 -97.7)"/>

        <path d="M233.8,264.1h5.1l-20.5,58.2h-7l-20.5-58.2h5.1l19,53.6Z" transform="translate(-149.6 -97.7)"/>

        <path d="M254.1,322.3H249V264.1h5.2v58.2Z" transform="translate(-149.6 -97.7)"/>

        <path d="M285.4,323.2a48.8,48.8,0,0,1-16.4-2.8l1-4.2a54.8,54.8,0,0,0,15.6,2.4c10,0,12.7-3,12.7-10.4,0-9-.1-10-13-12.9s-15.6-5.8-15.6-17.5c0-9.5,3.5-14.5,18.1-14.5a60.2,60.2,0,0,1,15,2l-0.6,4.4a69.8,69.8,0,0,0-14.2-1.7c-11.5,0-13.1,2.8-13.1,10.1,0,9.4.3,9.9,12.5,12.9,15.3,3.8,16.2,6,16.2,17S300.2,323.2,285.4,323.2Z" transform="translate(-149.6 -97.7)"/>

        <path d="M357.6,264.1v41.7c0,9.9-5.9,17.4-20.1,17.4s-20.1-7.5-20.1-17.4V264.1h5.2v41.7c0,8.1,5.2,12.8,14.9,12.8s14.9-4.6,14.9-12.8V264.1h5.2Z" transform="translate(-149.6 -97.7)"/>

        <path d="M405.7,307H378.6l-5.4,15.3h-5.1l20.3-58.2H396l20.3,58.2h-5.1Zm-25.5-4.5h23.9l-12-35.5Z" transform="translate(-149.6 -97.7)"/>

        <path d="M432.3,317.7h26.2v4.6H427.2V264.1h5.2v53.6Z" transform="translate(-149.6 -97.7)"/>

        <path d="M475.9,322.3h-5.2V264.1h5.2v58.2Z" transform="translate(-149.6 -97.7)"/>

        <path d="M496,317.7h32.4v4.6H490.4v-4.6l31.7-48.9H491.2v-4.6h36.6v4.6Z" transform="translate(-149.6 -97.7)"/>

        <path d="M542.5,264.1h32.8v4.6H547.6v21.6h25.7v4.6H547.6v22.7h27.7v4.6H542.5V264.1Z" transform="translate(-149.6 -97.7)"/>
    </g>
</svg>
